# AST/ASF file generated using VICON BodyLanguage
# -----------------------------------------------
:version 1.10
:name VICON
:units
  mass 1.0
  length 0.45
  angle deg
:documentation
   .ast/.asf automatically generated from VICON data using
   VICON BodyBuilder and BodyLanguage model FoxedUp or BRILLIANT.MOD
:root
   order TX TY TZ RX RY RZ
   axis XYZ
   position 0 0 0  
   orientation 0 0 0 
:bonedata
  begin
     id 1 
     name lhipjoint
     direction 0.535335 -0.74333 0.401095 
     length 2.04549 
     axis 0 0 0  XYZ
  end
  begin
     id 2 
     name lfemur
     direction 0.34202 -0.939693 0  
     length 6.95643  
     axis 0 0 20  XYZ
    dof rx ry rz
    limits (-160.0 20.0)
           (-70.0 70.0)
           (-60.0 70.0)
  end
  begin
     id 3 
     name ltibia
     direction 0.34192 -0.939729 0   
     length 5.55969   
     axis 0 0 20   XYZ
    dof rx
    limits (-10.0 170.0)
  end
  begin
     id 4 
     name lfoot
     direction 0.216943 -0.596046 0.773088   
     length 2.27918   
     axis -90 7.62852e-016 20   XYZ
    dof rx rz
    limits (-45.0 90.0)
           (-70.0 20.0)
  end
  begin
     id 5 
     name ltoes
     direction 1.53519e-011 -4.21748e-011 1   
     length 1.05562   
     axis -90 7.62852e-016 20   XYZ
    dof rx
    limits (-90.0 20.0)
  end
  begin
     id 6 
     name rhipjoint
     direction -0.576368 -0.719173 0.38806   
     length 2.1142  
     axis 0 0 0  XYZ 
  end
  begin
     id 7 
     name rfemur
     direction -0.34202 -0.939693 0   
     length 7.07928   
     axis 0 0 -20   XYZ
    dof rx ry rz
    limits (-160.0 20.0)
           (-70.0 70.0)
           (-70.0 60.0)
  end
  begin
     id 8 
     name rtibia
     direction -0.34202 -0.939693 0   
     length 5.79974   
     axis 0 0 -20   XYZ
    dof rx
    limits (-10.0 170.0)
 end
 begin
     id 9 
     name rfoot
     direction -0.189288 -0.520065 0.832888   
     length 2.42173  
     axis -90 -7.62852e-016 -20   XYZ
    dof rx rz
    limits (-45.0 90.0)
           (-20.0 70.0)
  end
  begin
     id 10 
     name rtoes
     direction -1.53574e-011 -4.21658e-011 1   
     length 1.14469   
     axis -90 -7.62852e-016 -20   XYZ
    dof rx
    limits (-90.0 20.0)
  end
  begin
     id 11 
     name lowerback
     direction -0.00135702 0.993803 0.111144   
     length 1.91308   
     axis 0 0 0   XYZ
    dof rx ry rz
    limits (-20.0 45.0)
           (-30.0 30.0)
           (-30.0 30.0)
  end
  begin
     id 12 
     name upperback
     direction -0.0056745 0.999813 0.0184631   
     length 1.9212   
     axis 0 0 0   XYZ
    dof rx ry rz
    limits (-20.0 45.0)
           (-30.0 30.0)
           (-30.0 30.0)
  end
  begin
     id 13 
     name thorax
     direction -0.00733434 0.999426 -0.0330788   
     length 1.94196   
     axis 0 0 0   XYZ
    dof rx ry rz
    limits (-20.0 45.0)
           (-30.0 30.0)
           (-30.0 30.0)
  end
  begin
     id 14 
     name lowerneck
     direction 0.0563074 0.996944 -0.0541571   
     length 2.34257   
     axis 0 0 0   XYZ
    dof rx ry rz
    limits (-20.0 45.0)
           (-30.0 30.0)
           (-30.0 30.0)
  end
  begin
     id 15 
     name upperneck
     direction -0.0544519 0.976166 -0.210085   
     length 2.32506   
     axis 0 0 0   XYZ
    dof rx ry rz
    limits (-20.0 45.0)
           (-30.0 30.0)
           (-30.0 30.0)
  end
  begin
     id 16
     name head
     direction -0.0226035 0.997615 -0.0652205  
     length 2.3648  
     axis 0 0 0   XYZ
    dof rx ry rz
    limits (-20.0 45.0)
           (-30.0 30.0)
           (-30.0 30.0)
  end
  begin
     id 17 
     name lclavicle
     direction 0.92109 0.381297 -0.0787716  
     length 4.0487  
     axis 0 0 0   XYZ
    dof ry rz
    limits (-20.0 10.0)
           (0.0 20.0)
  end
  begin
     id 18 
     name lhumerus
     direction 1 -4.48986e-011 3.56724e-027   
     length 4.94991   
     axis 180 -30 -90   XYZ
    dof rx ry rz
    limits (-60.0 90.0)
           (-90.0 90.0)
           (-90.0 90.0)
  end
  begin
     id 19
     name lradius
     direction 1 -4.48981e-011 8.62147e-027   
     length 2.7606   
     axis 180 -30 -90   XYZ
    dof rx
    limits (-10.0 170.0)
  end
  begin
     id 20
     name lwrist
     direction 1 -4.48989e-011 1.59799e-026   
     length 1.3803   
     axis -1.17785e-014 90 90   XYZ
    dof ry
    limits (-180.0 0.0)
 end
  begin
     id 21 
     name lhand
     direction 1 -4.48896e-011 3.19599e-026   
     length 0.843936   
     axis -2.03931e-014 90 90   XYZ
    dof rx rz
    limits (-90.0 90.0)
           (-45.0 45.0)
  end
  begin
     id 22 
     name lfingers
     direction 1 -4.48887e-011 6.39197e-026   
     length 0.680403   
     axis -4.07862e-014 90 90   XYZ
    dof rx
    limits (0.0 90.0)
  end
  begin
     id 23
     name lthumb
     direction 0.707107 -6.348e-011 0.707107   
     length 0.976926   
     axis -90 45 2.85299e-015   XYZ
    dof rx rz
    limits (-45.0 45.0)
           (-45.0 45.0)
  end
  begin
     id 24 
     name rclavicle
     direction -0.951104 0.307692 -0.026953   
     length 4.21801  
     axis 0 0 0   XYZ 
    dof ry rz
    limits (-10.0 20.0)
           (-20.0 0.0)
  end
  begin
     id 25 
     name rhumerus
     direction -1 -4.4896e-011 -1.8171e-018  
     length 4.32982   
     axis 180 30 90   XYZ
    dof rx ry rz
    limits (-90.0 60.0)
           (-90.0 90.0)
           (-90.0 90.0)
  end
  begin
     id 26 
     name rradius
     direction -1 -4.48959e-011 8.25165e-027   
     length 3.20057   
     axis 180 30 90   XYZ
    dof rx
    limits (-10.0 170.0)
  end
  begin
     id 27 
     name rwrist
     direction -1 -4.48997e-011 1.59799e-026   
     length 1.60029   
     axis -1.17785e-014 -90 -90   XYZ
    dof ry
    limits (-180.0 0.0)
  end
  begin
     id 28
     name rhand
     direction -1 -4.49023e-011 3.19599e-026   
     length 0.960433   
     axis -2.03931e-014 -90 -90   XYZ
    dof rx rz
    limits (-90.0 90.0)
           (-45.0 45.0)
  end
  begin
     id 29
     name rfingers
     direction -1 -4.48802e-011 6.39197e-026   
     length 0.774326   
     axis -4.07862e-014 -90 -90   XYZ
    dof rx
    limits (0.0 90.0)
  end
  begin
     id 30
     name rthumb
     direction -0.707107 -6.34876e-011 0.707107   
     length 1.11178   
     axis -90 -45 -2.85299e-015   XYZ
    dof rx rz
    limits (-45.0 45.0)
           (-45.0 45.0)
  end
:hierarchy
  begin
    root lhipjoint rhipjoint lowerback
    lhipjoint lfemur
    lfemur ltibia
    ltibia lfoot
    lfoot ltoes
    rhipjoint rfemur
    rfemur rtibia
    rtibia rfoot
    rfoot rtoes
    lowerback upperback
    upperback thorax
    thorax lowerneck lclavicle rclavicle
    lowerneck upperneck
    upperneck head
    lclavicle lhumerus
    lhumerus lradius
    lradius lwrist
    lwrist lhand lthumb
    lhand lfingers
    rclavicle rhumerus
    rhumerus rradius
    rradius rwrist
    rwrist rhand rthumb
    rhand rfingers
end

#!OML:ASF C:\KaitlinTest1\Natural Motions\Nikki\Session 2\Nikki.ASF
:FULLY-SPECIFIED
:DEGREES
40
root -13.2527 16.5403 4.86385 -81.3333 87.8864 -89.2683
lowerback -10.4133 -1.7374 2.45412
upperback -3.74801 -2.40507 -0.581884
thorax 1.80263 -1.16048 -2.26064
lowerneck -5.73885 -10.418 -10.3532
upperneck 6.16073 42.1092 5.88053
head 167.398 63.0149 -38.0076
rclavicle -1.5207e-014 -9.14409e-015
rhumerus -39.4094 -26.0922 -79.554
rradius 17.126
rwrist 22.3831
rhand -35.2847 1.7402
rfingers 7.12502
rthumb -8.41952 -28.072
lclavicle -1.5207e-014 -9.14409e-015
lhumerus -41.0213 15.4569 82.0649
lradius 21.4601
lwrist -43.2493
lhand -34.259 3.73375
lfingers 7.12502
lthumb -7.42961 33.5833
rfemur -5.30037 -15.7042 21.5582
rtibia 11.494
rfoot -11.0835 9.20042
rtoes 3.10104e-014
lfemur -12.2921 15.0778 -17.1089
ltibia 20.4514
lfoot -8.20729 -16.216
ltoes 6.83819e-014
41
root -13.2535 16.5392 4.86482 -81.3916 87.9025 -89.3226
lowerback -10.3873 -1.74476 2.419
upperback -3.7485 -2.41098 -0.581532
thorax 1.78916 -1.16356 -2.24025
lowerneck -5.76304 -10.4262 -10.3318
upperneck 6.15333 42.103 5.88008
head 167.378 63.0128 -38.0254
rclavicle 1.87852e-014 1.59028e-015
rhumerus -39.3796 -26.0211 -79.605
rradius 17.123
rwrist 22.2511
rhand -35.2873 1.71987
rfingers 7.12502
rthumb -8.42205 -28.0922
lclavicle 1.87852e-014 1.59028e-015
lhumerus -41.0141 15.4108 82.0858
lradius 21.4826
lwrist -43.2381
lhand -34.1501 3.84959
lfingers 7.12502
lthumb -7.32443 33.7028
rfemur -5.2895 -15.6264 21.5442
rtibia 11.5068
rfoot -11.0749 9.11651
rtoes -4.05521e-014
lfemur -12.2939 15.084 -17.1221
ltibia 20.4434
lfoot -8.1833 -16.2484
ltoes -1.90833e-014
42
root -13.2537 16.5396 4.86425 -81.257 87.9086 -89.1985
lowerback -10.3951 -1.75167 2.418
upperback -3.75067 -2.42025 -0.574487
thorax 1.79099 -1.16807 -2.23367
lowerneck -5.76964 -10.4216 -10.3454
upperneck 6.14338 42.0834 5.86306
head 167.344 63.0294 -38.0402
rclavicle 1.73937e-016 3.97569e-015
rhumerus -39.3665 -25.985 -79.6221
rradius 17.1448
rwrist 22.2079
rhand -35.2804 1.70493
rfingers 7.12502
rthumb -8.41536 -28.1074
lclavicle 1.73937e-016 3.97569e-015
lhumerus -41.0235 15.4101 82.1064
lradius 21.5066
lwrist -43.1605
lhand -34.1927 3.82513
lfingers 7.12502
lthumb -7.36558 33.6769
rfemur -5.30533 -15.6712 21.5399
rtibia 11.4969
rfoot -11.0797 9.17264
rtoes -3.73715e-014
lfemur -12.307 15.099 -17.1363
ltibia 20.4498
lfoot -8.20231 -16.237
ltoes -4.13472e-014
43
root -13.2523 16.5405 4.86418 -81.3911 87.9152 -89.3128
lowerback -10.3591 -1.75827 2.42088
upperback -3.76225 -2.42822 -0.574657
thorax 1.75869 -1.17265 -2.23474
lowerneck -5.77037 -10.4332 -10.3265
upperneck 6.14373 42.0645 5.85403
head 167.231 63.0714 -38.1198
rclavicle -1.60519e-014 -1.59028e-015
rhumerus -39.4019 -25.8666 -79.6757
rradius 17.2129
rwrist 22.029
rhand -35.2855 1.71159
rfingers 7.12502
rthumb -8.42027 -28.1006
lclavicle -1.60519e-014 -1.59028e-015
lhumerus -41.0634 15.4275 82.0875
lradius 21.547
lwrist -43.2104
lhand -34.1703 3.85382
lfingers 7.12502
lthumb -7.34398 33.7064
rfemur -5.27633 -15.6993 21.5215
rtibia 11.4973
rfoot -11.074 9.18053
rtoes -8.74653e-014
lfemur -12.2825 15.1128 -17.1365
ltibia 20.4552
lfoot -8.21468 -16.2386
ltoes -7.31528e-014
44
root -13.2519 16.5404 4.86444 -81.4011 87.8909 -89.3257
lowerback -10.3979 -1.75782 2.44936
upperback -3.73778 -2.43233 -0.570565
thorax 1.80402 -1.17411 -2.24898
lowerneck -5.80923 -10.4195 -10.3298
upperneck 6.13822 42.1023 5.86466
head 167.327 63.0337 -38.0657
rclavicle -1.74931e-014 2.38542e-015
rhumerus -39.3705 -25.8799 -79.6803
rradius 17.2187
rwrist 21.997
rhand -35.2605 1.79316
rfingers 7.12502
rthumb -8.39619 -28.02
lclavicle -1.74931e-014 2.38542e-015
lhumerus -40.9954 15.3373 82.1456
lradius 21.516
lwrist -43.0626
lhand -34.125 3.82659
lfingers 7.12502
lthumb -7.30024 33.6807
rfemur -5.27715 -15.6863 21.5511
rtibia 11.4979
rfoot -11.0699 9.18074
rtoes 3.02153e-014
lfemur -12.2825 15.1249 -17.1084
ltibia 20.4523
lfoot -8.18406 -16.2613
ltoes 3.65764e-014
45
root -13.2522 16.5392 4.86414 -81.4538 87.8859 -89.3725
lowerback -10.3723 -1.75789 2.45989
upperback -3.75127 -2.43254 -0.566523
thorax 1.77567 -1.17473 -2.24945
lowerneck -5.79338 -10.4147 -10.3457
upperneck 6.14634 42.1212 5.86787
head 167.372 62.984 -38.0254
rclavicle -4.9075e-014 -5.96354e-015
rhumerus -39.396 -25.8469 -79.6892
rradius 17.2576
rwrist 21.915
rhand -35.2601 1.80002
rfingers 7.12502
rthumb -8.39579 -28.0131
lclavicle -4.9075e-014 -5.96354e-015
lhumerus -41.0249 15.3496 82.1252
lradius 21.5126
lwrist -43.1406
lhand -34.1065 3.89229
lfingers 7.12502
lthumb -7.28237 33.747
rfemur -5.26366 -15.6939 21.5525
rtibia 11.4837
rfoot -11.0605 9.18523
rtoes -6.36111e-014
lfemur -12.2728 15.1196 -17.1044
ltibia 20.4596
lfoot -8.22525 -16.2571
ltoes -6.67916e-014
46
root -13.2531 16.5405 4.86463 -81.6021 87.9179 -89.5247
lowerback -10.3624 -1.76985 2.41784
upperback -3.74504 -2.44434 -0.569524
thorax 1.77785 -1.18045 -2.23005
lowerneck -5.82222 -10.4145 -10.341
upperneck 6.1405 42.1326 5.86501
head 167.369 62.9666 -38.0312
rclavicle -2.69602e-014 -6.36111e-015
rhumerus -39.3614 -25.7777 -79.7526
rradius 17.3017
rwrist 21.7834
rhand -35.2798 1.81593
rfingers 7.12502
rthumb -8.41478 -27.9964
lclavicle -2.69602e-014 -6.36111e-015
lhumerus -40.9949 15.432 82.081
lradius 21.5099
lwrist -43.1752
lhand -34.0895 3.80685
lfingers 7.12502
lthumb -7.26597 33.6621
rfemur -5.27184 -15.6792 21.5264
rtibia 11.481
rfoot -11.0553 9.16619
rtoes -3.97569e-014
lfemur -12.291 15.0768 -17.1355
ltibia 20.4684
lfoot -8.21542 -16.2418
ltoes 0
47
root -13.254 16.5402 4.86524 -81.7101 87.8672 -89.667
lowerback -10.3791 -1.76736 2.46822
upperback -3.76015 -2.44567 -0.562123
thorax 1.76929 -1.18131 -2.25109
lowerneck -5.82732 -10.4175 -10.3117
upperneck 6.14913 42.1587 5.8857
head 167.412 62.924 -38.0073
rclavicle 1.69215e-014 0
rhumerus -39.3813 -25.8847 -79.7129
rradius 17.3024
rwrist 21.837
rhand -35.2632 1.87191
rfingers 7.12502
rthumb -8.39877 -27.9411
lclavicle 1.69215e-014 0
lhumerus -40.988 15.3714 82.0897
lradius 21.5102
lwrist -43.0673
lhand -34.1137 3.77383
lfingers 7.12502
lthumb -7.28931 33.6283
rfemur -5.32594 -15.6521 21.5996
rtibia 11.4971
rfoot -11.0347 9.14419
rtoes -4.77083e-015
lfemur -12.3367 15.091 -17.0862
ltibia 20.4692
lfoot -8.19586 -16.2558
ltoes -6.52014e-014
48
root -13.2538 16.5396 4.86499 -81.4718 87.8511 -89.4262
lowerback -10.4039 -1.7625 2.49467
upperback -3.73682 -2.44351 -0.559051
thorax 1.80617 -1.17981 -2.26399
lowerneck -5.85457 -10.4185 -10.3193
upperneck 6.12533 42.1187 5.86497
head 167.389 62.9574 -38.0183
rclavicle 3.0588e-014 -2.78299e-015
rhumerus -39.3367 -25.8704 -79.7505
rradius 17.3315
rwrist 21.7873
rhand -35.2626 1.80378
rfingers 7.12502
rthumb -8.39821 -28.0093
lclavicle 3.0588e-014 -2.78299e-015
lhumerus -40.9603 15.352 82.1135
lradius 21.5423
lwrist -42.9972
lhand -34.1918 3.74136
lfingers 7.12502
lthumb -7.36467 33.5932
rfemur -5.32909 -15.6388 21.6097
rtibia 11.5084
rfoot -11.0487 9.13998
rtoes -7.07673e-014
lfemur -12.324 15.1032 -17.0685
ltibia 20.4656
lfoot -8.20359 -16.2542
ltoes -1.01778e-013
49
root -13.2547 16.5394 4.8656 -81.6069 87.8769 -89.5428
lowerback -10.3769 -1.77007 2.46296
upperback -3.73153 -2.45017 -0.563209
thorax 1.79773 -1.18328 -2.25035
lowerneck -5.85906 -10.4154 -10.325
upperneck 6.1256 42.1292 5.86486
head 167.408 62.9338 -38.0023
rclavicle 3.67752e-015 -8.74653e-015
rhumerus -39.2952 -25.6767 -79.8958
rradius 17.4096
rwrist 21.4425
rhand -35.2776 1.78714
rfingers 7.12502
rthumb -8.41272 -28.0253
lclavicle 3.67752e-015 -8.74653e-015
lhumerus -40.9397 15.292 82.1314
lradius 21.5257
lwrist -42.9925
lhand -34.2054 3.8079
lfingers 7.12502
lthumb -7.37785 33.6593
rfemur -5.3138 -15.6749 21.5859
rtibia 11.5103
rfoot -11.0823 9.16169
rtoes -1.98785e-014
lfemur -12.3113 15.1022 -17.0871
ltibia 20.4783
lfoot -8.23038 -16.2621
ltoes 1.43125e-014
50
root -13.2539 16.5395 4.86559 -81.6193 87.8773 -89.5705
lowerback -10.4125 -1.77487 2.46588
upperback -3.72148 -2.45773 -0.567279
thorax 1.82691 -1.18652 -2.25864
lowerneck -5.89762 -10.3996 -10.3203
upperneck 6.14015 42.2233 5.89346
head 167.522 62.8487 -37.9475
rclavicle -3.70236e-014 -7.95139e-015
rhumerus -39.2686 -25.6895 -79.9293
rradius 17.4315
rwrist 21.4423
rhand -35.2705 1.77764
rfingers 7.12502
rthumb -8.40585 -28.0351
lclavicle -3.70236e-014 -7.95139e-015
lhumerus -40.9236 15.2592 82.141
lradius 21.5784
lwrist -42.8914
lhand -34.1341 3.84251
lfingers 7.12502
lthumb -7.30903 33.6963
rfemur -5.33839 -15.724 21.5882
rtibia 11.5209
rfoot -11.059 9.20466
rtoes 4.92986e-014
lfemur -12.3268 15.1093 -17.0922
ltibia 20.4807
lfoot -8.22242 -16.2684
ltoes -3.18055e-015
51
root -13.2539 16.5393 4.86569 -81.6739 87.862 -89.6448
lowerback -10.4161 -1.78212 2.47381
upperback -3.73588 -2.46784 -0.553327
thorax 1.81364 -1.19164 -2.24957
lowerneck -5.87856 -10.4119 -10.314
upperneck 6.11459 42.1104 5.85567
head 167.363 62.9704 -38.0347
rclavicle 2.31087e-014 3.97569e-015
rhumerus -39.2437 -25.6061 -79.9846
rradius 17.453
rwrist 21.3231
rhand -35.2897 1.78978
rfingers 7.12502
rthumb -8.42437 -28.0222
lclavicle 2.31087e-014 3.97569e-015
lhumerus -40.9562 15.2857 82.1372
lradius 21.5847
lwrist -42.8554
lhand -34.2512 3.74082
lfingers 7.12502
lthumb -7.42202 33.5906
rfemur -5.3624 -15.7065 21.6117
rtibia 11.5481
rfoot -11.0934 9.19159
rtoes -3.18055e-015
lfemur -12.3463 15.1299 -17.0799
ltibia 20.4698
lfoot -8.2224 -16.2883
ltoes 6.04305e-014
52
root -13.2534 16.5393 4.866 -81.289 87.8747 -89.2386
lowerback -10.4036 -1.78171 2.45929
upperback -3.72623 -2.46626 -0.55158
thorax 1.81764 -1.19083 -2.23919
lowerneck -5.86976 -10.3997 -10.3357
upperneck 6.11022 42.104 5.85163
head 167.413 62.9645 -37.9915
rclavicle -1.11319e-014 -1.19271e-015
rhumerus -39.222 -25.5927 -79.9932
rradius 17.4726
rwrist 21.3448
rhand -35.2719 1.79285
rfingers 7.12502
rthumb -8.4072 -28.0198
lclavicle -1.11319e-014 -1.19271e-015
lhumerus -40.9318 15.2231 82.1606
lradius 21.5798
lwrist -42.8528
lhand -34.2418 3.80035
lfingers 7.12502
lthumb -7.41298 33.6505
rfemur -5.34681 -15.7825 21.5919
rtibia 11.5539
rfoot -11.1201 9.26495
rtoes -3.73715e-014
lfemur -12.3164 15.1368 -17.0871
ltibia 20.4669
lfoot -8.24746 -16.2754
ltoes -6.83819e-014
